<svg width="153" height="159" viewBox="0 0 153 159" fill="none" xmlns="http://www.w3.org/2000/svg">
<path d="M148.333 85.8554C150.189 85.3188 151.757 83.9473 152.503 82.0392C153.497 79.5547 152.943 76.7124 151.126 74.8241L81.0135 1.93793C78.5273 -0.645978 74.4919 -0.645978 72.0056 1.93793L1.87425 74.8042C0.057375 76.6925 -0.49725 79.5547 0.49725 82.0193C1.26225 83.9274 2.8305 85.2989 4.68563 85.8355C1.7595 89.6915 0 94.5215 0 99.3713C0 106.865 3.93975 113.642 10.098 117.24C17.5567 144.212 41.004 159 76.5 159C111.996 159 135.443 144.212 142.902 117.24C149.06 113.642 153 106.845 153 99.3713C153 94.5215 151.24 89.6915 148.333 85.8554ZM21.7642 72.8762L76.5 15.9904L131.236 72.8762H21.7642Z" fill="#A0D4EC"/>
<path d="M77 131C82.5269 131 87 128.497 87 125.384C87 122.27 82.5269 117 77 117C71.4731 117 67 122.291 67 125.384C67 128.497 71.4731 131 77 131Z" fill="white"/>
<path d="M52.8395 107.512C55.2004 107.04 57.1653 106.36 58.7085 105.51C63.087 103.097 62.939 99.8617 62.6782 98.5841C62.2436 96.5257 60.7462 94.9584 58.4581 94.2059C56.3099 93.4947 53.4767 93.4927 50.0682 94.1867C48.0905 94.5897 45.9482 95.415 43.6693 96.671C39.3267 99.0643 35.9564 102.201 35.8149 102.326C35.3389 102.778 35.1131 103.471 35.2625 104.123C35.4119 104.775 35.8785 105.324 36.496 105.552C36.8697 105.677 45.8669 108.915 52.8395 107.512Z" fill="white"/>
<path d="M101.16 107.512C98.7996 107.04 96.8347 106.36 95.2915 105.51C90.913 103.097 91.061 99.8617 91.3218 98.5841C91.7564 96.5257 93.2538 94.9584 95.5419 94.2059C97.6901 93.4947 100.523 93.4927 103.932 94.1867C105.909 94.5897 108.052 95.415 110.331 96.671C114.673 99.0643 118.044 102.201 118.185 102.326C118.661 102.778 118.887 103.471 118.738 104.123C118.588 104.775 118.122 105.324 117.504 105.552C117.13 105.677 108.133 108.915 101.16 107.512Z" fill="white"/>
</svg>
