<svg width="150" height="144" viewBox="0 0 150 144" fill="none" xmlns="http://www.w3.org/2000/svg">
<path d="M89.2441 85.8356C88.6295 83.8052 89.1827 81.7334 90.8216 79.9724C92.3581 78.3149 94.8369 76.9682 98.1558 75.9116C100.081 75.3108 102.355 75 104.957 75C109.915 75 114.381 76.0981 114.565 76.1602C115.201 76.326 115.733 76.8232 115.918 77.4655C116.102 78.1077 115.979 78.8122 115.528 79.3094C115.262 79.6202 108.952 86.7887 102.171 88.9226C99.8766 89.6478 97.828 90 96.0661 90C91.0469 89.9793 89.6334 87.0787 89.2441 85.8356Z" fill="#A0D4EC"/>
<path d="M76 96C70.4731 96 66 98.5029 66 101.616C66 104.73 70.4731 110 76 110C81.5269 110 86 104.709 86 101.616C86 98.5029 81.5269 96 76 96Z" fill="#A0D4EC"/>
<path d="M47.8271 88.9212C50.1219 89.6473 52.1708 90 53.9329 90C58.9323 90 60.3666 87.0954 60.7558 85.8506C61.3705 83.8382 60.8173 81.7427 59.1782 79.9793C57.6415 78.3195 55.1623 76.9502 51.843 75.9129C49.917 75.3112 47.6427 75 45.0405 75C40.0821 75 35.6154 76.1203 35.431 76.1618C34.7959 76.3278 34.2631 76.8257 34.0787 77.4689C33.8943 78.112 34.0378 78.8174 34.468 79.3154C34.7344 79.6058 41.0451 86.7842 47.8271 88.9212Z" fill="#A0D4EC"/>
<path d="M15.1698 106.616L16.1055 106.903L16.5639 107.781C27.9265 129.516 50.3461 143 75.1146 143C99.9022 143 122.341 129.478 133.684 107.705L134.143 106.845L135.059 106.54C143.271 103.847 149 95.6149 149 86.5428C149 80.03 146.193 74.0138 141.304 70.0029L140.54 69.3727L140.445 68.3986C139.509 59.422 137.599 51.2857 135.212 46.0335L135.193 45.9953C135.155 45.8998 135.098 45.8043 135.059 45.7088L135.002 45.6133C134.773 45.174 131.565 38.9668 124.69 31.881L120.832 27.9083L126.37 27.8319C133.341 27.7364 141.209 24.5469 142.545 23.4009C142.66 23.038 142.583 21.5483 141.018 18.6834C139.452 15.8376 136.95 12.6099 133.952 9.6304C130.954 6.63183 127.745 4.12984 124.9 2.5637C122.035 0.997569 120.546 0.921172 120.183 1.03577C119.018 2.41091 115.084 11.9032 115.829 19.4665L116.306 24.3177L112.181 21.7202C101.258 14.8254 88.7497 11.3493 74.9618 11.3493C61.1166 11.3493 48.5892 14.8254 37.7613 21.682L33.6746 24.2986L34.152 19.4474C34.8777 11.8841 30.9819 2.41091 29.7979 1.03577C29.4351 0.921172 27.9455 0.997569 25.081 2.5637C22.2356 4.12984 19.0083 6.63183 16.0292 9.6304C13.031 12.629 10.5293 15.8376 8.96336 18.7025C7.39742 21.5674 7.32103 23.0571 7.43561 23.42C8.75329 24.566 16.6594 27.7746 23.6488 27.851L29.1677 27.9083L25.3484 31.881C18.359 39.1577 15.1698 45.7088 15.1316 45.7852L15.1125 45.8234C15.0934 45.8807 15.0743 45.8998 15.0743 45.8998L15.017 46.0335C11.7897 53.1192 10.3574 62.9744 9.78452 68.2076L9.66994 69.2008L8.88697 69.831C3.88361 73.8228 1 79.9154 1 86.5428C1 95.7486 6.82452 103.999 15.1698 106.616ZM18.6645 75.2934L20.3051 72.0018L20.4787 71.6646C20.3641 70.213 20.3068 68.7615 20.3068 67.3099C20.3068 65.2281 20.4596 63.1272 20.8034 60.6443L20.9943 59.2692L22.2929 58.7535C40.0911 51.6677 49.3721 44.7156 56.1515 39.6352C59.1497 37.4006 61.7277 35.4525 64.4204 33.9628L66.2155 32.9696L67.4759 34.593C72.2501 40.743 78.6475 46.4345 85.9424 51.0565C99.7112 59.7467 115.294 63.5665 126.599 61.0454L129.273 60.4533L129.502 63.1845C129.617 64.5597 129.731 65.8966 129.731 67.329C129.731 68.7233 129.674 70.1366 129.559 71.5691L131.546 75.3698C136.148 76.5349 139.585 81.1187 139.585 86.5619C139.585 92.9029 134.945 98.0596 129.235 98.0596C128.757 98.0596 128.28 98.0214 127.803 97.945C119.4 119.336 98.5272 133.565 75.1146 133.565C51.6828 133.565 30.8101 119.317 22.4457 97.8877C21.911 97.9832 21.3572 98.0214 20.8034 98.0214C15.0934 98.0214 10.4529 92.8646 10.4529 86.5237C10.4338 81.0232 13.9667 76.3821 18.6645 75.2934Z" fill="#A0D4EC" stroke="#A0D4EC" stroke-width="2"/>
</svg>
