<svg width="54" height="54" viewBox="0 0 54 54" fill="none" xmlns="http://www.w3.org/2000/svg">
<path d="M16.3125 34.875C20.3511 34.875 23.625 31.6011 23.625 27.5625C23.625 23.5239 20.3511 20.25 16.3125 20.25C12.2739 20.25 9 23.5239 9 27.5625C9 31.6011 12.2739 34.875 16.3125 34.875Z" stroke="#0D242C" stroke-width="3.21429" stroke-linecap="round" stroke-linejoin="round"/>
<path d="M37.6875 34.875C33.6489 34.875 30.375 31.6011 30.375 27.5625C30.375 23.5239 33.6489 20.25 37.6875 20.25C41.7261 20.25 45 23.5239 45 27.5625C45 31.6011 41.7261 34.875 37.6875 34.875Z" stroke="#0D242C" stroke-width="3.21429" stroke-linecap="round" stroke-linejoin="round"/>
<path d="M4.5 27H9M49.5 27H45M22.5 23.625C23.0625 21.375 24.75 19.125 27 19.125C29.25 19.125 30.9375 21.375 31.5 23.625" stroke="#0D242C" stroke-width="3.21429" stroke-linecap="round" stroke-linejoin="round"/>
</svg>
