<svg width="32" height="32" viewBox="0 0 32 32" fill="none" xmlns="http://www.w3.org/2000/svg">
<path d="M9.66732 20.6667C12.0606 20.6667 14.0007 18.7266 14.0007 16.3333C14.0007 13.9401 12.0606 12 9.66732 12C7.27408 12 5.33398 13.9401 5.33398 16.3333C5.33398 18.7266 7.27408 20.6667 9.66732 20.6667Z" stroke="white" stroke-width="2.08181" stroke-linecap="round" stroke-linejoin="round"/>
<path d="M22.3337 20.6662C19.9404 20.6662 18.0003 18.7261 18.0003 16.3328C18.0003 13.9396 19.9404 11.9995 22.3337 11.9995C24.7269 11.9995 26.667 13.9396 26.667 16.3328C26.667 18.7261 24.7269 20.6662 22.3337 20.6662Z" stroke="white" stroke-width="2.08181" stroke-linecap="round" stroke-linejoin="round"/>
<path d="M2.66699 15.9997H5.33366M29.3337 15.9997H26.667M13.3337 13.9997C13.667 12.6663 14.667 11.333 16.0003 11.333C17.3337 11.333 18.3337 12.6663 18.667 13.9997" stroke="white" stroke-width="2.08181" stroke-linecap="round" stroke-linejoin="round"/>
</svg>
