<svg width="100%" height="100%" viewBox="0 0 32 32" fill="none" xmlns="http://www.w3.org/2000/svg">
<g clip-path="url(#clip0_192_6727)">
<path d="M15.9739 10.7753C16.7951 10.7753 17.4608 10.1096 17.4608 9.28839C17.4608 8.46722 16.7951 7.80152 15.9739 7.80152C15.1527 7.80152 14.4871 8.46722 14.4871 9.28839C14.4871 10.1096 15.1527 10.7753 15.9739 10.7753Z" fill="white" stroke="white" stroke-width="0.484844"/>
<path d="M14.1924 14.5666H14.8174V22.0007H13.3174C13.0175 22.0007 12.7309 22.1222 12.5202 22.3367C12.3098 22.5511 12.1924 22.841 12.1924 23.1422C12.1924 23.4435 12.3098 23.7333 12.5202 23.9477C12.7309 24.1623 13.0175 24.2837 13.3174 24.2837H18.5674C18.8673 24.2837 19.1539 24.1623 19.3645 23.9477C19.575 23.7333 19.6924 23.4435 19.6924 23.1422C19.6924 22.841 19.575 22.5511 19.3645 22.3367C19.1539 22.1222 18.8673 22.0007 18.5674 22.0007H17.0674V12.5337V12.2837H16.8174H14.1924C13.8925 12.2837 13.6059 12.4051 13.3952 12.6197C13.1848 12.8341 13.0674 13.1239 13.0674 13.4252C13.0674 13.7264 13.1848 14.0162 13.3952 14.2307C13.6059 14.4452 13.8925 14.5666 14.1924 14.5666Z" fill="white" stroke="white" stroke-width="0.5"/>
<path d="M8.13868 28.3895C10.5396 29.9937 13.3624 30.85 16.25 30.85C20.1222 30.85 23.8357 29.3118 26.5738 26.5738C29.3118 23.8357 30.85 20.1222 30.85 16.25C30.85 13.3624 29.9937 10.5396 28.3895 8.13868C26.7852 5.73772 24.505 3.8664 21.8372 2.76136C19.1694 1.65633 16.2338 1.3672 13.4017 1.93054C10.5696 2.49389 7.96809 3.8844 5.92625 5.92625C3.8844 7.96809 2.49389 10.5696 1.93054 13.4017C1.3672 16.2338 1.65633 19.1694 2.76136 21.8372C3.8664 24.505 5.73772 26.7852 8.13868 28.3895ZM9.51719 6.17363C11.5101 4.84201 13.8531 4.13126 16.25 4.13126C19.4641 4.13126 22.5465 5.40805 24.8193 7.68075C27.092 9.95346 28.3687 13.0359 28.3687 16.25C28.3687 18.6469 27.658 20.9899 26.3264 22.9828C24.9947 24.9757 23.1021 26.529 20.8876 27.4463C18.6732 28.3635 16.2366 28.6035 13.8858 28.1359C11.5349 27.6683 9.37559 26.5141 7.68075 24.8193C5.98592 23.1244 4.83172 20.9651 4.36411 18.6143C3.89651 16.2634 4.1365 13.8268 5.05374 11.6124C5.97098 9.39795 7.52427 7.50526 9.51719 6.17363Z" fill="white" stroke="white" stroke-width="0.7"/>
</g>
<defs>
<clipPath id="clip0_192_6727">
<rect width="31.9994" height="32" fill="white"/>
</clipPath>
</defs>
</svg>
