<svg width="100%" height="100%" viewBox="0 0 32 32" fill="none" xmlns="http://www.w3.org/2000/svg">
<path d="M25.6401 20.3465L22.2534 19.9599C21.8552 19.9131 21.4515 19.9572 21.0728 20.0888C20.6941 20.2204 20.3501 20.4362 20.0667 20.7199L17.6134 23.1732C13.8283 21.2481 10.7518 18.1716 8.82672 14.3865L11.2934 11.9199C11.8667 11.3465 12.1467 10.5465 12.0534 9.73319L11.6667 6.37319C11.5911 5.72275 11.279 5.12283 10.7897 4.68765C10.3004 4.25246 9.6682 4.01241 9.01339 4.01319H6.70672C5.20005 4.01319 3.94672 5.26652 4.04005 6.77319C4.74672 18.1599 13.8534 27.2532 25.2267 27.9599C26.7334 28.0532 27.9867 26.7999 27.9867 25.2932V22.9865C28.0001 21.6399 26.9867 20.5065 25.6401 20.3465Z" fill="white"/>
</svg>
