<svg width="100%" height="100%" viewBox="0 0 32 32" fill="none" xmlns="http://www.w3.org/2000/svg">
<path d="M15.9997 16.0003C14.533 16.0003 13.333 14.8003 13.333 13.3337C13.333 11.867 14.533 10.667 15.9997 10.667C17.4663 10.667 18.6663 11.867 18.6663 13.3337C18.6663 14.8003 17.4663 16.0003 15.9997 16.0003ZM23.9997 13.6003C23.9997 8.76032 20.4663 5.33366 15.9997 5.33366C11.533 5.33366 7.99967 8.76032 7.99967 13.6003C7.99967 16.7203 10.5997 20.8537 15.9997 25.787C21.3997 20.8537 23.9997 16.7203 23.9997 13.6003ZM15.9997 2.66699C21.5997 2.66699 26.6663 6.96032 26.6663 13.6003C26.6663 18.027 23.1063 23.267 15.9997 29.3337C8.89301 23.267 5.33301 18.027 5.33301 13.6003C5.33301 6.96032 10.3997 2.66699 15.9997 2.66699Z" fill="white"/>
</svg>
