<svg width="55" height="52" viewBox="0 0 55 52" fill="none" xmlns="http://www.w3.org/2000/svg">
<path fill-rule="evenodd" clip-rule="evenodd" d="M27.3406 0.0487453C32.281 -0.52825 36.1421 4.15011 40.1955 7.04821C44.0597 9.81104 47.9455 12.4983 50.4315 16.5582C53.1437 20.9877 55.3398 25.9674 54.9564 31.1549C54.5611 36.5024 52.4057 42.0037 48.2979 45.423C44.3628 48.6988 38.6714 47.7801 33.6785 48.8673C29.1182 49.8603 24.5794 53.2178 20.2234 51.5362C15.8741 49.8573 15.2849 43.854 12.0239 40.5082C8.44435 36.8357 1.63199 36.034 0.280082 31.0746C-1.05136 26.1903 2.63267 21.2493 5.6734 17.212C8.32018 13.6978 12.8278 12.5702 16.2715 9.84236C20.2119 6.72101 22.3579 0.63069 27.3406 0.0487453Z" fill="#5AB8EC" fill-opacity="0.8"/>
<path d="M28 19L35 26L28 33" stroke="white" stroke-width="2.5" stroke-linecap="round" stroke-linejoin="round"/>
</svg>
