<svg width="55" height="52" viewBox="0 0 55 52" fill="none" xmlns="http://www.w3.org/2000/svg">
<path fill-rule="evenodd" clip-rule="evenodd" d="M26.6488 4.816C31.2749 5.25101 35.8059 1.93829 40.2351 3.4136C45.2041 5.0687 49.7894 8.54646 52.3078 13.3626C54.9 18.3199 55.8803 24.5644 54.0852 29.9004C52.3693 35.0009 47.0868 37.3896 43.0861 40.7739C39.8226 43.5346 36.6357 46.1099 32.8116 47.8964C28.4761 49.9217 24.0612 52.6878 19.3881 51.8444C14.5495 50.9712 10.7714 47.1159 7.43264 43.3164C4.0036 39.4142 0.0180517 35.104 4.33349e-05 29.7808C-0.0177302 24.5271 5.43668 21.2789 7.34166 16.4254C9.35238 11.3026 6.84911 3.44755 11.4129 0.703328C16.0622 -2.09229 21.3196 4.31487 26.6488 4.816Z" fill="#5AB8EC" fill-opacity="0.8"/>
<path d="M29 19L22 26L29 33" stroke="white" stroke-width="2.5" stroke-linecap="round" stroke-linejoin="round"/>
</svg>
