<svg width="32" height="32" viewBox="0 0 32 32" fill="none" xmlns="http://www.w3.org/2000/svg">
<path d="M15.987 2.66699C8.62699 2.66699 2.66699 8.64033 2.66699 16.0003C2.66699 23.3603 8.62699 29.3337 15.987 29.3337C23.3603 29.3337 29.3337 23.3603 29.3337 16.0003C29.3337 8.64033 23.3603 2.66699 15.987 2.66699ZM16.0003 26.667C10.107 26.667 5.33366 21.8937 5.33366 16.0003C5.33366 10.107 10.107 5.33366 16.0003 5.33366C21.8937 5.33366 26.667 10.107 26.667 16.0003C26.667 21.8937 21.8937 26.667 16.0003 26.667ZM16.667 9.33366H14.667V17.3337L21.667 21.5337L22.667 19.8937L16.667 16.3337V9.33366Z" fill="white"/>
</svg>
