<svg width="112" height="66" viewBox="0 0 112 66" fill="none" xmlns="http://www.w3.org/2000/svg">
<path fill-rule="evenodd" clip-rule="evenodd" d="M30.7791 37.6601C22.4903 29.7228 5.91319 31.1251 1.80129 20.4276C-2.18291 10.0622 4.6565 -2.37801 12.3532 -10.2768C19.3042 -17.4102 31.961 -13.6795 40.3197 -19.102C47.7857 -23.9454 48.3839 -36.9555 57.0006 -39.2409C65.4543 -41.483 72.8715 -33.0288 81.0893 -29.9151C90.9716 -26.1708 105.389 -28.5006 110.2 -19.084C115.054 -9.58233 102.902 0.4208 101.996 11.0088C101.117 21.2964 112.926 34.6398 105.04 41.2503C96.2324 48.6327 82.0101 32.207 71.3997 36.6549C59.9231 41.4659 60.8336 64.7023 48.3592 65.011C37.3444 65.2836 38.7716 45.3136 30.7791 37.6601Z" fill="#317BA3"/>
</svg>
